<?xml version="1.0" standalone="no"?>
<!DOCTYPE svg PUBLIC "-//W3C//DTD SVG 20010904//EN"
 "http://www.w3.org/TR/2001/REC-SVG-20010904/DTD/svg10.dtd">
<svg version="1.0" xmlns="http://www.w3.org/2000/svg"
 width="512.000000pt" height="512.000000pt" viewBox="0 0 512.000000 512.000000"
 preserveAspectRatio="xMidYMid meet">

<g transform="translate(0.000000,512.000000) scale(0.100000,-0.100000)"
fill="#000000" stroke="none">
<path d="M755 5109 c-298 -44 -567 -253 -684 -534 -51 -122 -65 -195 -64 -345
0 -106 5 -152 22 -215 153 -567 773 -833 1289 -554 l76 40 111 -111 112 -112
-21 -51 c-21 -51 -21 -64 -21 -667 0 -603 0 -616 21 -667 l21 -51 -112 -112
-111 -111 -76 40 c-417 225 -917 100 -1176 -294 -289 -440 -112 -1052 369
-1280 156 -73 350 -100 516 -71 300 52 522 219 653 491 70 145 84 211 85 385
0 177 -17 249 -92 400 l-53 104 111 112 111 111 51 -21 c51 -21 64 -21 667
-21 603 0 616 0 667 21 l51 21 112 -112 111 -111 -40 -76 c-279 -516 -13
-1136 554 -1289 104 -29 315 -31 418 -6 325 80 571 323 659 648 31 116 31 317
0 434 -50 185 -173 372 -317 482 -147 112 -308 171 -492 180 -181 9 -325 -23
-481 -107 l-76 -41 -111 111 -112 112 21 51 c21 51 21 64 21 667 0 603 0 616
-21 667 l-21 51 112 112 112 112 84 -46 c263 -141 590 -141 848 0 213 117 366
316 433 565 18 68 22 110 22 219 0 157 -15 229 -75 358 -116 251 -337 433
-606 499 -103 25 -314 23 -418 -6 -567 -153 -833 -773 -554 -1289 l40 -76
-111 -111 -112 -112 -51 21 c-51 21 -64 21 -667 21 -603 0 -616 0 -667 -21
l-51 -21 -112 112 -112 112 41 75 c76 138 111 275 111 434 0 539 -479 951
-1015 873z m310 -341 c266 -88 431 -377 374 -650 -12 -57 -47 -148 -58 -148
-3 0 -94 88 -201 196 -107 107 -207 202 -222 210 -68 36 -166 7 -207 -60 -23
-37 -28 -113 -10 -149 6 -12 102 -113 213 -225 160 -162 198 -204 186 -212
-91 -58 -308 -74 -432 -32 -242 83 -405 326 -383 572 23 265 211 474 468 520
72 12 200 2 272 -22z m3327 6 c181 -54 329 -203 384 -389 24 -80 24 -220 0
-299 -55 -186 -188 -327 -364 -388 -95 -32 -259 -33 -352 0 -36 12 -72 27 -80
32 -12 8 26 50 186 212 111 112 207 213 213 225 18 36 13 112 -10 149 -41 67
-139 96 -207 60 -15 -8 -115 -103 -222 -210 -107 -108 -198 -196 -201 -196
-10 0 -47 99 -60 160 -17 78 -6 211 24 292 72 198 247 339 462 372 49 7 170
-4 227 -20z m-1252 -1566 c33 -17 51 -35 68 -68 22 -44 22 -44 22 -580 0 -536
0 -536 -22 -580 -17 -33 -35 -51 -68 -67 -44 -23 -44 -23 -581 -23 l-536 0
-44 23 c-31 16 -51 36 -66 67 l-23 44 0 536 c0 536 0 536 23 580 16 33 34 51
67 68 44 22 44 22 580 22 536 0 536 0 580 -22z m-2067 -1791 c38 -14 71 -28
75 -31 3 -4 -84 -98 -195 -209 -110 -111 -206 -212 -212 -224 -6 -12 -11 -43
-11 -69 0 -56 27 -104 74 -133 37 -23 113 -28 149 -10 12 6 113 102 224 212
111 111 205 198 209 195 20 -20 56 -152 61 -224 19 -266 -149 -501 -413 -580
-79 -24 -219 -24 -299 0 -347 102 -509 481 -345 807 59 117 188 227 313 268
87 28 101 30 207 26 71 -2 112 -9 163 -28z m3279 22 c191 -39 359 -197 420
-394 29 -91 30 -235 4 -315 -64 -192 -205 -331 -391 -386 -80 -24 -220 -24
-299 0 -240 71 -397 265 -413 506 -3 49 -1 109 6 140 13 61 50 160 60 160 3 0
94 -88 201 -196 107 -107 207 -202 222 -210 43 -23 117 -18 159 10 63 43 89
140 55 204 -8 15 -103 115 -210 222 -108 107 -196 198 -196 201 0 10 75 41
132 54 67 17 181 18 250 4z"/>
<path d="M2385 2706 c-97 -43 -124 -171 -54 -251 43 -49 81 -57 251 -53 129 3
150 5 174 24 53 39 69 71 69 134 0 63 -16 95 -69 134 -25 19 -44 21 -184 23
-116 2 -165 -1 -187 -11z"/>
</g>
</svg>
